<svg xmlns="http://www.w3.org/2000/svg" width="1024" height="1024" viewBox="0 0 1024 1024" role="img" aria-label="Flat Signal Walnut logo">

  <defs>
    <linearGradient id="fill" x1="135" y1="130" x2="875" y2="870" gradientUnits="userSpaceOnUse">
      <stop offset="0" stop-color="#5869ff"/>
      <stop offset="0.58" stop-color="#6f77ff"/>
      <stop offset="1" stop-color="#f4a96c"/>
    </linearGradient>
    <radialGradient id="bloom" cx="34%" cy="21%" r="70%">
      <stop offset="0" stop-color="#fff" stop-opacity="0.25"/>
      <stop offset="1" stop-color="#fff" stop-opacity="0"/>
    </radialGradient>
    <clipPath id="markClip"><path d="M 186.0 420.0 C 184.0 300.0, 282.0 146.0, 462.0 124.0 C 545.0 104.0, 666.0 116.0, 747.0 180.0 C 832.0 246.0, 865.0 338.0, 862.0 421.0 C 930.0 455.0, 968.0 540.0, 941.0 621.0 C 922.0 681.0, 876.0 731.0, 815.0 747.0 C 791.0 833.0, 696.0 886.0, 591.0 857.0 C 543.0 887.0, 460.0 891.0, 394.0 876.0 C 274.0 848.0, 202.0 774.0, 192.0 665.0 C 125.0 645.0, 91.0 586.0, 108.0 509.0 C 119.0 461.0, 149.0 431.0, 186.0 420.0 Z"/></clipPath>
  </defs>
  <style>

    .groove{fill:none;stroke:#ffffff;stroke-opacity:0.871;stroke-width:18;stroke-linecap:round;stroke-linejoin:round}
    .groove.central{stroke-width:26}

  </style>

  <path d="M 186.0 420.0 C 184.0 300.0, 282.0 146.0, 462.0 124.0 C 545.0 104.0, 666.0 116.0, 747.0 180.0 C 832.0 246.0, 865.0 338.0, 862.0 421.0 C 930.0 455.0, 968.0 540.0, 941.0 621.0 C 922.0 681.0, 876.0 731.0, 815.0 747.0 C 791.0 833.0, 696.0 886.0, 591.0 857.0 C 543.0 887.0, 460.0 891.0, 394.0 876.0 C 274.0 848.0, 202.0 774.0, 192.0 665.0 C 125.0 645.0, 91.0 586.0, 108.0 509.0 C 119.0 461.0, 149.0 431.0, 186.0 420.0 Z" fill="url(#fill)"/>
  <path d="M 186.0 420.0 C 184.0 300.0, 282.0 146.0, 462.0 124.0 C 545.0 104.0, 666.0 116.0, 747.0 180.0 C 832.0 246.0, 865.0 338.0, 862.0 421.0 C 930.0 455.0, 968.0 540.0, 941.0 621.0 C 922.0 681.0, 876.0 731.0, 815.0 747.0 C 791.0 833.0, 696.0 886.0, 591.0 857.0 C 543.0 887.0, 460.0 891.0, 394.0 876.0 C 274.0 848.0, 202.0 774.0, 192.0 665.0 C 125.0 645.0, 91.0 586.0, 108.0 509.0 C 119.0 461.0, 149.0 431.0, 186.0 420.0 Z" fill="url(#bloom)" clip-path="url(#markClip)"/>

  <path d="M 186.0 420.0 C 184.0 300.0, 282.0 146.0, 462.0 124.0 C 545.0 104.0, 666.0 116.0, 747.0 180.0 C 832.0 246.0, 865.0 338.0, 862.0 421.0 C 930.0 455.0, 968.0 540.0, 941.0 621.0 C 922.0 681.0, 876.0 731.0, 815.0 747.0 C 791.0 833.0, 696.0 886.0, 591.0 857.0 C 543.0 887.0, 460.0 891.0, 394.0 876.0 C 274.0 848.0, 202.0 774.0, 192.0 665.0 C 125.0 645.0, 91.0 586.0, 108.0 509.0 C 119.0 461.0, 149.0 431.0, 186.0 420.0 Z" fill="none" stroke="#ffffff" stroke-opacity="0.204" stroke-width="8" stroke-linejoin="round"/>
  <g>
    <path d="M 523.0 187.0 C 452.0 253.0, 441.0 352.0, 516.0 421.0 C 607.0 487.0, 614.0 612.0, 517.0 700.0 C 470.0 744.0, 482.0 810.0, 555.0 853.0" class="groove central"/>
    <path d="M 356.0 306.0 C 308.0 365.0, 314.0 461.0, 398.0 503.0" class="groove "/>
    <path d="M 704.0 291.0 C 755.0 361.0, 754.0 467.0, 639.0 504.0" class="groove "/>
    <path d="M 348.0 641.0 C 419.0 601.0, 485.0 621.0, 526.0 655.0" class="groove "/>
    <path d="M 574.0 661.0 C 642.0 608.0, 730.0 619.0, 784.0 637.0" class="groove "/>
  </g>
</svg>
